<svg width="32" height="32" viewBox="0 0 32 32" fill="none" xmlns="http://www.w3.org/2000/svg">
<path d="M20.6667 6C20.6667 6.74667 20.9333 7.38667 21.44 7.90667C21.9333 8.42667 22.56 8.66667 23.3333 8.66667C24.0667 8.66667 24.6667 8.42667 25.2133 7.90667C25.7333 7.38667 26 6.74667 26 6C26 5.29333 25.7333 4.66667 25.1867 4.12C24.6667 3.58667 24 3.33333 23.3333 3.33333C22.6 3.33333 22 3.58667 21.4667 4.12C20.9467 4.66667 20.6667 5.29333 20.6667 6ZM29.3333 6C29.3333 7.33333 28.8133 8.92 27.8133 10.7467C26.8133 12.5867 25.8133 14.08 24.8133 15.2533L23.3333 17C22.8533 16.5067 22.2933 15.8533 21.6267 15.0667C20.96 14.2667 20.0667 12.8933 18.9733 10.9333C17.8667 8.97333 17.3333 7.33333 17.3333 6C17.3333 4.33333 17.8933 2.92 19.0667 1.74667C20.2267 0.586667 21.64 0 23.3333 0C24.9733 0 26.4 0.586667 27.56 1.74667C28.7333 2.92 29.3333 4.33333 29.3333 6ZM28 15.44V25.3333C28 26 27.7333 26.6667 27.1867 27.1867C26.6667 27.7333 26 28 25.3333 28H6.66667C6 28 5.33333 27.7333 4.81333 27.1867C4.26667 26.6667 4 26 4 25.3333V6.66667C4 6 4.26667 5.33333 4.81333 4.81333C5.33333 4.26667 6 4 6.66667 4H14.9333C14.7733 4.84 14.6667 5.50667 14.6667 6C14.6667 7.58667 15.2533 9.45333 16.3733 11.6C17.5067 13.7333 18.4533 15.3333 19.2133 16.28C20 17.2667 20.7067 18.1067 21.3733 18.8133L23.3333 20.9333L25.3333 18.8133C27.0267 16.6667 27.92 15.52 28 15.44ZM12 19.3333V21.1867H15C14.6667 22.6667 13.6667 23.3733 12 23.3733C11.08 23.3733 10.3067 23.04 9.69333 22.3733C9.07631 21.7386 8.73591 20.8852 8.74667 20C8.74667 19.08 9.06667 18.2933 9.69333 17.6267C10.3067 16.96 11.08 16.6267 12 16.6267C12.88 16.6267 13.5867 16.8933 14.12 17.44L15.56 16.0667C14.56 15.1467 13.4 14.6667 12.0667 14.6667H12C10.5467 14.6667 9.29333 15.2133 8.25333 16.2533C7.21333 17.2933 6.66667 18.5467 6.66667 20C6.66667 21.4533 7.21333 22.7067 8.25333 23.7467C9.29333 24.7867 10.5467 25.3333 12 25.3333C13.5467 25.3333 14.7867 24.84 15.72 23.88C16.6667 22.92 17.12 21.6667 17.12 20.12C17.12 19.7467 17.1067 19.48 17.0667 19.3333H12Z" fill="white"/>
</svg>
