<svg width="32" height="32" viewBox="0 0 32 32" fill="none" xmlns="http://www.w3.org/2000/svg">
<path d="M27.6647 3.875H18.3177C17.5833 3.875 16.9824 4.47588 16.9824 5.21029V17.2279L20.9883 13.222H27.6647C28.3991 13.222 29 12.6211 29 11.8867V5.21029C29 4.47588 28.3991 3.875 27.6647 3.875ZM26.6365 20.2456L23.2449 19.8584C22.8461 19.8115 22.4419 19.8557 22.0626 19.9875C21.6833 20.1193 21.3388 20.3354 21.055 20.6195L18.5981 23.0764C14.8075 21.1486 11.7264 18.0675 9.79858 14.2769L12.2689 11.8066C12.843 11.2324 13.1234 10.4313 13.03 9.61673L12.6427 6.25181C12.567 5.60042 12.2544 4.99963 11.7644 4.5638C11.2744 4.12798 10.6413 3.88757 9.98552 3.88835H7.67548C6.1666 3.88835 4.91144 5.14352 5.00491 6.6524C5.71261 18.0557 14.8326 27.1624 26.2226 27.8701C27.7315 27.9636 28.9866 26.7084 28.9866 25.1995V22.8895C29 21.5408 27.9852 20.4058 26.6365 20.2456Z" fill="white"/>
</svg>
